<svg xmlns="http://www.w3.org/2000/svg" viewBox="0 0 900 1200" width="900" height="1200" role="img">
  <defs>
    <radialGradient id="g" cx="50%" cy="38%" r="72%">
      <stop offset="0%" stop-color="#ffffff" stop-opacity="0.55"/>
      <stop offset="100%" stop-color="#000000" stop-opacity="0.06"/>
    </radialGradient>
    <filter id="soft" x="-30%" y="-30%" width="160%" height="160%">
      <feGaussianBlur stdDeviation="34"/>
    </filter>
    <filter id="grain">
      <feTurbulence type="fractalNoise" baseFrequency="0.85" numOctaves="3"/>
      <feColorMatrix type="saturate" values="0"/>
      <feComponentTransfer><feFuncA type="linear" slope="0.045"/></feComponentTransfer>
    </filter>
  </defs>

  <rect width="900" height="1200" fill="#f0eae1"/>
  <rect width="900" height="1200" fill="url(#g)"/>

  <ellipse cx="450" cy="960" rx="250" ry="46" fill="#000" opacity="0.16" filter="url(#soft)"/>

  
    <path d="M250 390 L360 330 Q450 392 540 330 L650 390 L700 540 L615 575 L615 880 Q450 905 285 880 L285 575 L200 540 Z"
          fill="#d3ccbc"/>
    <path d="M360 330 Q450 400 540 330 L515 312 Q450 366 385 312 Z" fill="#b7ae9a"/>
    <rect x="330" y="580" width="110" height="120" rx="6" fill="none" stroke="#655f52" stroke-width="5" opacity="0.5"/>

  <rect width="900" height="1200" filter="url(#grain)" opacity="0.55"/>
</svg>
